<svg width="33" height="33" viewBox="0 0 33 33" fill="none" xmlns="http://www.w3.org/2000/svg">
<g id="Filter_icon">
<path id="Filter_icon_2" d="M27.078 11.0749V4.06169C27.078 3.70262 26.9353 3.35825 26.6814 3.10434C26.4275 2.85044 26.0831 2.70779 25.7241 2.70779C25.365 2.70779 25.0206 2.85044 24.7667 3.10434C24.5128 3.35825 24.3702 3.70262 24.3702 4.06169V11.0749C23.586 11.3595 22.9086 11.8786 22.4298 12.5617C21.951 13.2448 21.6942 14.0587 21.6942 14.8929C21.6942 15.727 21.951 16.541 22.4298 17.2241C22.9086 17.9072 23.586 18.4263 24.3702 18.7109V28.4319C24.3702 28.791 24.5128 29.1353 24.7667 29.3892C25.0206 29.6431 25.365 29.7858 25.7241 29.7858C26.0831 29.7858 26.4275 29.6431 26.6814 29.3892C26.9353 29.1353 27.078 28.791 27.078 28.4319V18.7109C27.8621 18.4263 28.5395 17.9072 29.0183 17.2241C29.4971 16.541 29.7539 15.727 29.7539 14.8929C29.7539 14.0587 29.4971 13.2448 29.0183 12.5617C28.5395 11.8786 27.8621 11.3595 27.078 11.0749ZM25.7241 16.2468C25.4563 16.2468 25.1945 16.1674 24.9719 16.0186C24.7492 15.8698 24.5757 15.6584 24.4732 15.411C24.3707 15.1636 24.3439 14.8914 24.3962 14.6288C24.4484 14.3661 24.5774 14.1249 24.7667 13.9355C24.9561 13.7462 25.1973 13.6172 25.4599 13.565C25.7226 13.5128 25.9948 13.5396 26.2422 13.642C26.4896 13.7445 26.701 13.9181 26.8498 14.1407C26.9986 14.3633 27.078 14.6251 27.078 14.8929C27.078 15.252 26.9353 15.5963 26.6814 15.8502C26.4275 16.1041 26.0831 16.2468 25.7241 16.2468ZM17.6007 19.1983V4.06169C17.6007 3.70262 17.458 3.35825 17.2041 3.10434C16.9502 2.85044 16.6058 2.70779 16.2468 2.70779C15.8877 2.70779 15.5433 2.85044 15.2894 3.10434C15.0355 3.35825 14.8929 3.70262 14.8929 4.06169V19.1983C14.1088 19.4829 13.4313 20.002 12.9525 20.6851C12.4738 21.3682 12.2169 22.1821 12.2169 23.0163C12.2169 23.8504 12.4738 24.6644 12.9525 25.3475C13.4313 26.0306 14.1088 26.5497 14.8929 26.8343V28.4319C14.8929 28.791 15.0355 29.1353 15.2894 29.3892C15.5433 29.6431 15.8877 29.7858 16.2468 29.7858C16.6058 29.7858 16.9502 29.6431 17.2041 29.3892C17.458 29.1353 17.6007 28.791 17.6007 28.4319V26.8343C18.3848 26.5497 19.0623 26.0306 19.541 25.3475C20.0198 24.6644 20.2766 23.8504 20.2766 23.0163C20.2766 22.1821 20.0198 21.3682 19.541 20.6851C19.0623 20.002 18.3848 19.4829 17.6007 19.1983ZM16.2468 24.3702C15.979 24.3702 15.7172 24.2908 15.4946 24.142C15.2719 23.9932 15.0984 23.7818 14.9959 23.5344C14.8935 23.287 14.8666 23.0148 14.9189 22.7521C14.9711 22.4895 15.1001 22.2483 15.2894 22.0589C15.4788 21.8696 15.72 21.7406 15.9826 21.6884C16.2453 21.6362 16.5175 21.663 16.7649 21.7654C17.0123 21.8679 17.2237 22.0414 17.3725 22.2641C17.5213 22.4867 17.6007 22.7485 17.6007 23.0163C17.6007 23.3754 17.458 23.7197 17.2041 23.9736C16.9502 24.2275 16.6058 24.3702 16.2468 24.3702ZM8.12337 8.36709V4.06169C8.12337 3.70262 7.98073 3.35825 7.72682 3.10434C7.47292 2.85044 7.12855 2.70779 6.76947 2.70779C6.4104 2.70779 6.06603 2.85044 5.81212 3.10434C5.55822 3.35825 5.41557 3.70262 5.41557 4.06169V8.36709C4.63146 8.65169 3.95399 9.17081 3.47522 9.8539C2.99646 10.537 2.73962 11.3509 2.73962 12.1851C2.73962 13.0193 2.99646 13.8332 3.47522 14.5163C3.95399 15.1994 4.63146 15.7185 5.41557 16.0031V28.4319C5.41557 28.791 5.55822 29.1353 5.81212 29.3892C6.06603 29.6431 6.4104 29.7858 6.76947 29.7858C7.12855 29.7858 7.47292 29.6431 7.72682 29.3892C7.98073 29.1353 8.12337 28.791 8.12337 28.4319V16.0031C8.90749 15.7185 9.58496 15.1994 10.0637 14.5163C10.5425 13.8332 10.7993 13.0193 10.7993 12.1851C10.7993 11.3509 10.5425 10.537 10.0637 9.8539C9.58496 9.17081 8.90749 8.65169 8.12337 8.36709ZM6.76947 13.539C6.5017 13.539 6.23993 13.4596 6.01729 13.3108C5.79464 13.162 5.62111 12.9506 5.51863 12.7032C5.41616 12.4558 5.38935 12.1836 5.44159 11.921C5.49383 11.6583 5.62278 11.4171 5.81212 11.2277C6.00147 11.0384 6.24271 10.9094 6.50534 10.8572C6.76797 10.805 7.04019 10.8318 7.28759 10.9342C7.53498 11.0367 7.74643 11.2103 7.8952 11.4329C8.04397 11.6555 8.12337 11.9173 8.12337 12.1851C8.12337 12.5442 7.98073 12.8885 7.72682 13.1424C7.47292 13.3963 7.12855 13.539 6.76947 13.539Z" fill="#303030" fill-opacity="0.35"/>
</g>
</svg>
